<svg version="1.1" xmlns="http://www.w3.org/2000/svg" xmlns:xlink="http://www.w3.org/1999/xlink" width="684.97281" height="570.85504" viewBox="0,0,684.97281,570.85504"><g transform="translate(49.32398,57.17897)"><g data-paper-data="{&quot;isPaintingLayer&quot;:true}" fill-rule="nonzero" stroke-linejoin="miter" stroke-miterlimit="10" stroke-dasharray="" stroke-dashoffset="0" style="mix-blend-mode: normal"><path d="M279.67368,113.91406h-49.5v-56.25" fill="none" stroke="#ff0000" stroke-width="2" stroke-linecap="round"/><path d="M231.09067,114.56607v-153.029h49.148v153.029z" fill="#ff0000" stroke="none" stroke-width="0" stroke-linecap="butt"/><path d="M278.00467,22.97207v-31.276h176.14416c0,10.42533 0,20.85067 0,31.276z" fill="#ff0000" stroke="none" stroke-width="0" stroke-linecap="butt"/><path d="M501.96317,-8.30393v31.276h-15.81434c0,-10.43307 0,-20.8603 0,-31.276z" fill="#ff0000" stroke="none" stroke-width="0" stroke-linecap="butt"/><path d="M338.88117,137.46457v-25.1325h19.5475v25.1325z" fill="#ff0000" stroke="none" stroke-width="0" stroke-linecap="butt"/><path d="M338.32267,119.03407v-22.8985h22.34v22.8985z" fill="#ff0000" stroke="none" stroke-width="0" stroke-linecap="butt"/><path d="M176.35767,15.15307v-50.8235h92.711v50.8235z" fill="#ff0000" stroke="none" stroke-width="0" stroke-linecap="butt"/><path d="M122.67602,436.82103v-124h331.47281c0,41.25928 0,82.95399 0,124z" fill="#ff0000" stroke="none" stroke-width="0" stroke-linecap="butt"/><path d="M601.67602,312.82103v124h-115.52719c0,-41.33333 0,-82.66667 0,-124z" fill="#ff0000" stroke="none" stroke-width="0" stroke-linecap="butt"/><path d="M600.67602,9.82103v349h-114.52719c0,-43.04832 0,-86.09664 0,-129.14496c0,-72.36557 0,-146.31505 0,-219.85504z" fill="#ff0000" stroke="none" stroke-width="0" stroke-linecap="butt"/><path d="M439.67602,358.82103v-349h14.47281c0,77.61835 0,155.23669 0,232.85504c0,38.08017 0,77.09763 0,116.14496z" fill="#ff0000" stroke="none" stroke-width="0" stroke-linecap="butt"/><path d="M100.67602,165.82103v-25h194.23077v25z" fill="#ff0000" stroke="none" stroke-width="0" stroke-linecap="butt"/><path d="M-49.32398,382.82103v-440h78v440h-9.52719c0,-45.04832 0,-90.09664 0,-135.14496c0,-83.33333 0,-166.66667 0,-250c0,0 0,-12.5 -12.5,-12.5c-12.5,0 -12.5,12.5 -12.5,12.5c0,83.33333 0,166.66667 0,250c0,44.06533 0,89.69952 0,135.14496z" fill="#ff0000" stroke="#000000" stroke-width="0" stroke-linecap="butt"/><path d="M171.67602,348.82103v37h-152.52719c0,-12.33333 0,-24.66667 0,-37z" fill="#ff0000" stroke="none" stroke-width="0" stroke-linecap="butt"/><path d="M4.67602,-48.17897h188v57h-173.52719c0,-3.71499 0,-7.42997 0,-11.14496c0,0 0,-12.5 -12.5,-12.5c-0.69559,0 -1.35248,0.03871 -1.97281,0.11182z" fill="#ff0000" stroke="none" stroke-width="0" stroke-linecap="butt"/><path d="M115.67602,105.82103v-63h82v63z" fill="#ff0000" stroke="none" stroke-width="0" stroke-linecap="butt"/><path d="M72.67602,164.82103v-177h9v177z" fill="#ff0000" stroke="none" stroke-width="0" stroke-linecap="butt"/><path d="M70.67602,167.82103v-29h42v29z" fill="#ff0000" stroke="none" stroke-width="0" stroke-linecap="butt"/><path d="M273.67602,159.82103v-22h81v22z" fill="#ff0000" stroke="none" stroke-width="0" stroke-linecap="butt"/><path d="M298.67602,101.82103v-22h22v22z" fill="#ff0000" stroke="none" stroke-width="0" stroke-linecap="butt"/><path d="M381.67602,77.82103v-37h37v37z" fill="#ff0000" stroke="none" stroke-width="0" stroke-linecap="butt"/><path d="M347.67602,148.82103v-43h32v43z" fill="#ff0000" stroke="#ff0000" stroke-width="2" stroke-linecap="butt"/><path d="M414.67602,147.82103v-18h38v18z" fill="#ff0000" stroke="#ff0000" stroke-width="2" stroke-linecap="butt"/><path d="M393.17602,194.82103c0,2.5 -2.5,2.5 -2.5,2.5h-2c-0.074,0 -7.24083,0.02494 -7.57438,-0.06688c-1.56501,-0.43081 -2.89323,-1.47733 -4.38233,-2.12342c-1.16157,-0.50398 -2.56747,-0.53769 -3.56078,-1.32293c-1.09104,-0.8625 -1.5185,-2.33924 -2.41587,-3.40179c-2.08985,-2.47453 -4.55312,-4.91307 -5.49977,-8.01059c-0.27768,-0.90859 0.33638,-1.94714 0.04039,-2.84992c-0.32309,-0.98544 -1.29146,-1.63299 -1.80547,-2.5337c-1.34973,-2.36513 -2.40811,-4.9102 -3.20822,-7.51317c-1.31902,-4.29111 -0.88645,-9.11636 -1.69241,-13.48552c-0.30631,-1.66054 -1.11239,-3.20766 -1.37348,-4.87591c-0.51308,-3.27839 -0.44457,-6.63262 -0.99367,-9.90517c0,0 -0.411,-2.46598 2.05499,-2.87698c2.46598,-0.411 2.87698,2.05499 2.87698,2.05499c0.54479,3.28948 0.48381,6.65873 1.00134,9.95261c0.25529,1.62485 1.05441,3.12795 1.3513,4.74571c0.76917,4.19124 0.30709,8.92775 1.5878,13.03509c1.12246,3.59982 3.83083,6.53238 4.98631,9.95313c0.33606,0.99489 -0.22493,2.13404 0.04039,3.15008c0.90225,3.45519 2.30295,3.30971 4.50023,5.98941c0.64317,0.78437 0.79748,1.95782 1.58413,2.59821c0.6544,0.53272 1.66169,0.34925 2.43922,0.67707c1.25177,0.52776 2.3163,1.48687 3.61767,1.87658c2.05196,0.61447 4.28363,-0.06688 6.42562,-0.06688h2c0,0 2.5,0 2.5,2.5z" fill="#ff0000" stroke="none" stroke-width="0.5" stroke-linecap="butt"/><path d="M419.90825,200.58879c-1.76777,-1.76777 0,-3.53553 0,-3.53553l2,-2c1.88003,-1.88003 5.47566,-4.13821 6.59227,-6.46398c1.33653,-2.78386 1.27753,-6.15684 1.69423,-9.07371c0.19437,-1.36055 0.84587,-2.6343 1,-4c0.36241,-3.21113 -0.01873,-6.46302 -0.01873,-9.69454c0,-2.47531 0.77999,-5.05526 0.06688,-7.42562c-0.42946,-1.42751 -1.67727,-2.54464 -2,-4c-0.37371,-1.68529 0.17865,-3.46566 -0.03535,-5.17858c-0.3368,-2.69585 -1.44782,-5.24194 -1.98298,-7.90552c0,0 -0.49029,-2.45145 1.96116,-2.94174c2.45145,-0.49029 2.94174,1.96116 2.94174,1.96116c0.54278,2.72718 1.66709,5.33592 2.01702,8.09448c0.20225,1.59441 -0.38473,3.25268 -0.03535,4.82142c0.32406,1.45506 1.60757,2.56187 2,4c0.75243,2.7574 0.06688,5.71617 0.06688,8.57438c0,0.40974 0.00588,10.08061 -0.01873,10.30546c-0.14957,1.36621 -0.80564,2.63944 -1,4c-0.50772,3.55409 -0.5864,7.58045 -2.30577,10.92629c-1.42678,2.77647 -5.1915,5.31979 -7.40773,7.53602l-2,2c0,0 -1.76777,1.76777 -3.53553,0z" fill="#ff0000" stroke="none" stroke-width="0.5" stroke-linecap="butt"/><path d="M366.17602,249.82103c0,2.5 -2.5,2.5 -2.5,2.5h-2c-5.93689,0 -11.95384,0.64545 -17.69897,-1.0997c-1.29866,-0.39448 -2.74029,-0.58918 -3.81852,-1.41353c-0.86518,-0.66147 -0.72196,-2.29547 -1.68869,-2.79699c-1.31289,-0.6811 -3.42918,0.724 -4.42145,-0.3728c-2.22313,-2.45734 -1.86778,-7.69897 -1.87238,-10.81698c-0.01241,-8.41065 1,-16.61321 1,-25c0,0 0,-2.5 2.5,-2.5c2.5,0 2.5,2.5 2.5,2.5c0,8.39014 -0.9868,16.5914 -1,25c-0.00196,1.25122 -0.02806,2.50253 -0.01217,3.75366c0.01371,1.07883 -0.73251,2.55005 0.10095,3.23517c0.93261,0.76663 2.54197,-0.72721 3.61739,-0.17861c1.17283,0.5983 1.30488,2.35413 2.31131,3.20301c0.57558,0.48548 1.45275,0.39692 2.18148,0.58647c5.35034,1.39167 10.79405,0.9003 16.30103,0.9003h2c0,0 2.5,0 2.5,2.5z" fill="#ff0000" stroke="none" stroke-width="0.5" stroke-linecap="butt"/><path d="M429.06277,237.7409c2.08013,1.38675 0.69338,3.46688 0.69338,3.46688l-1.6874,2.33771c-0.02768,1.41075 0.39749,2.90557 -0.08303,4.23225c-0.93114,2.57078 -3.68224,4.07213 -5.18307,6.35762c-1.01983,1.55302 -1.30999,3.71915 -2.8123,4.8123c-1.44324,1.05017 -5.11289,0.02984 -6.91387,0.34109c-1.0387,0.17951 -1.95936,0.83216 -3,1c-2.76445,0.44586 -5.60028,0.03228 -8.40046,0.03228c0,0 -2.5,0 -2.5,-2.5c0,-2.5 2.5,-2.5 2.5,-2.5c2.5332,0 5.10334,0.46368 7.59954,0.03228c1.0387,-0.17951 1.95936,-0.83216 3,-1c1.11908,-0.18049 2.26946,-0.10813 3.40046,-0.03228c0.57422,0.03851 1.27452,0.77607 1.68567,0.37337c0.81009,-0.79344 0.61208,-2.21074 1.1877,-3.1877c0.91404,-1.55133 2.06891,-2.95425 3.23799,-4.32368c0.44523,-0.52153 1.38546,-0.66084 1.57894,-1.3187c0.35444,-1.20518 -0.05535,-2.51183 -0.08303,-3.76775l2.3126,-3.66229c0,0 1.38675,-2.08013 3.46688,-0.69338z" fill="#ff0000" stroke="none" stroke-width="0.5" stroke-linecap="butt"/><path d="M312.17602,277.82103c0,-1.38071 1.11929,-2.5 2.5,-2.5c1.38071,0 2.5,1.11929 2.5,2.5c0,1.38071 -1.11929,2.5 -2.5,2.5c-1.38071,0 -2.5,-1.11929 -2.5,-2.5z" fill="#ff0000" stroke="none" stroke-width="0.5" stroke-linecap="butt"/><path d="M347.17602,281.82103c0,-1.38071 1.11929,-2.5 2.5,-2.5c1.38071,0 2.5,1.11929 2.5,2.5c0,1.38071 -1.11929,2.5 -2.5,2.5c-1.38071,0 -2.5,-1.11929 -2.5,-2.5z" fill="#ff0000" stroke="none" stroke-width="0.5" stroke-linecap="butt"/><path d="M422.67602,283.32103c1.38071,0 2.5,1.11929 2.5,2.5c0,1.38071 -1.11929,2.5 -2.5,2.5c-0.5628,0 -1.08217,-0.18597 -1.5,-0.49982c-0.41783,0.31384 -0.9372,0.49982 -1.5,0.49982c-1.38071,0 -2.5,-1.11929 -2.5,-2.5c0,-1.38071 1.11929,-2.5 2.5,-2.5c0.5628,0 1.08217,0.18597 1.5,0.49982c0.41783,-0.31384 0.9372,-0.49982 1.5,-0.49982z" fill="#ff0000" stroke="none" stroke-width="0.5" stroke-linecap="butt"/><path d="M392.17602,276.82103c0,-1.38071 1.11929,-2.5 2.5,-2.5c0.63539,0 1.21541,0.23703 1.65647,0.6275c0.35401,-0.95048 1.26971,-1.6275 2.34353,-1.6275c1.38071,0 2.5,1.11929 2.5,2.5c0,1.38071 -1.11929,2.5 -2.5,2.5c-0.63539,0 -1.21541,-0.23703 -1.65647,-0.6275c-0.35401,0.95048 -1.26971,1.6275 -2.34353,1.6275c-1.38071,0 -2.5,-1.11929 -2.5,-2.5z" fill="#ff0000" stroke="none" stroke-width="0.5" stroke-linecap="butt"/><path d="M376.17602,252.82103c0,-1.38071 1.11929,-2.5 2.5,-2.5c1.38071,0 2.5,1.11929 2.5,2.5c0,1.38071 -1.11929,2.5 -2.5,2.5c-1.38071,0 -2.5,-1.11929 -2.5,-2.5z" fill="#ff0000" stroke="none" stroke-width="0.5" stroke-linecap="butt"/><path d="M357.17602,231.82103c0,-1.38071 1.11929,-2.5 2.5,-2.5c1.38071,0 2.5,1.11929 2.5,2.5c0,1.38071 -1.11929,2.5 -2.5,2.5c-1.38071,0 -2.5,-1.11929 -2.5,-2.5z" fill="#ff0000" stroke="none" stroke-width="0.5" stroke-linecap="butt"/><path d="M340.17602,207.82103c0,-1.38071 1.11929,-2.5 2.5,-2.5c1.38071,0 2.5,1.11929 2.5,2.5c0,1.38071 -1.11929,2.5 -2.5,2.5c-1.38071,0 -2.5,-1.11929 -2.5,-2.5z" fill="#ff0000" stroke="none" stroke-width="0.5" stroke-linecap="butt"/><path d="M397.17602,226.82103c0,-1.38071 1.11929,-2.5 2.5,-2.5c1.38071,0 2.5,1.11929 2.5,2.5c0,1.38071 -1.11929,2.5 -2.5,2.5c-1.38071,0 -2.5,-1.11929 -2.5,-2.5z" fill="#ff0000" stroke="none" stroke-width="0.5" stroke-linecap="butt"/><path d="M313.17602,48.82103c0,-1.38071 1.11929,-2.5 2.5,-2.5c1.38071,0 2.5,1.11929 2.5,2.5c0,1.38071 -1.11929,2.5 -2.5,2.5c-1.38071,0 -2.5,-1.11929 -2.5,-2.5z" fill="#ff0000" stroke="none" stroke-width="0.5" stroke-linecap="butt"/><path d="M78.17602,31.82103v-4h0.16967c-0.07049,-0.11932 -0.11838,-0.25161 -0.13739,-0.40046c-0.21629,-1.69341 1.2275,-3.19873 1.60374,-4.86391c1.07593,-4.7619 -0.16521,-9.33602 1.36398,-14.03805v-2.69758c0,-1.38071 1.11929,-2.5 2.5,-2.5c1.0731,0 1.98829,0.67611 2.34282,1.62559l1.82809,4.57023c0.1312,-0.70003 0.24085,-1.40477 0.36137,-2.09628c0.20373,-1.16897 -0.37953,-2.49841 0.15802,-3.55625c1.50549,-2.96263 5.6632,-5.61879 9.07747,-2.81106c1.4639,1.20385 0.76372,8.7941 0.73223,10.76777c-0.01981,1.24184 0.26694,2.54017 -0.10727,3.72446c-0.39351,1.24539 -1.60013,2.09865 -2.11232,3.30011c-2.87648,6.74742 -2.4739,14.69457 -9.79434,17.76751c0.01394,0.12932 0.01394,0.20791 0.01394,0.20791l-0.01722,0.00689c0.01023,0.66521 0.01722,1.32975 0.01722,1.99311l-2.5,-1l-2.5,1c0,-0.48222 -0.00243,-0.96363 -0.00625,-1.44428c-0.49974,-0.03199 -0.99934,-0.06295 -1.49375,-0.05572c0,0 -2.5,0 -2.5,-2.5c0,-1.18537 0.56204,-1.8087 1.15314,-2.13648c-0.09906,-0.26913 -0.15314,-0.56001 -0.15314,-0.86352zM86.16832,27.81508c0.00257,0.00192 0.00514,0.00384 0.0077,0.00576v-0.13916c-0.00263,0.04446 -0.0052,0.08892 -0.0077,0.1334zM93.90825,4.58879c0.25491,-0.38529 -0.67572,0.52732 -0.88563,1.061c0.11089,0.06524 0.21111,0.138 0.3017,0.21623c0.12298,-0.43671 0.31029,-0.86365 0.58392,-1.27723z" fill="#ff0000" stroke="none" stroke-width="0.5" stroke-linecap="butt"/><path d="M163.17602,12.82103c0,-1.38071 1.11929,-2.5 2.5,-2.5c1.38071,0 2.5,1.11929 2.5,2.5c0,1.38071 -1.11929,2.5 -2.5,2.5c-1.38071,0 -2.5,-1.11929 -2.5,-2.5z" fill="#ff0000" stroke="none" stroke-width="0.5" stroke-linecap="butt"/><path d="M226.17602,76.82103c0,-1.38071 1.11929,-2.5 2.5,-2.5c1.38071,0 2.5,1.11929 2.5,2.5c0,1.38071 -1.11929,2.5 -2.5,2.5c-1.38071,0 -2.5,-1.11929 -2.5,-2.5z" fill="#ff0000" stroke="none" stroke-width="0.5" stroke-linecap="butt"/><path d="M152.17602,131.82103c0,-1.38071 1.11929,-2.5 2.5,-2.5c1.38071,0 2.5,1.11929 2.5,2.5c0,1.38071 -1.11929,2.5 -2.5,2.5c-1.38071,0 -2.5,-1.11929 -2.5,-2.5z" fill="#ff0000" stroke="none" stroke-width="0.5" stroke-linecap="butt"/><path d="M296.17602,217.82103c0,1.38071 -1.11929,2.5 -2.5,2.5c-0.92716,0 -1.73644,-0.50471 -2.16807,-1.25438l-2.5309,-0.84532c-6.30619,-1.70399 -10.37448,-5.49832 -15.6466,-9.2933c-1.65373,-1.19039 -4.4027,-1.69627 -4.88383,-3.67627c-1.585,-6.52264 5.05716,-9.311 9.43883,-10.80244c0,0 2.37171,-0.79057 3.16228,1.58114c0.79057,2.37171 -1.58114,3.16228 -1.58114,3.16228c-0.97226,0.31566 -7.26245,2.14944 -6.27508,4.48233c0.39168,0.92544 1.9419,0.56885 2.83007,1.03897c0.50883,0.26933 1.00637,0.56294 1.48952,0.87883c0.59539,-0.27183 1.16492,-0.27183 1.16492,-0.27183l0.98432,0.00005c5.22987,-0.01192 9.79874,-1.96178 15.01568,-2.00005c0,0 2.5,0 2.5,2.5c0,2.5 -2.5,2.5 -2.5,2.5c-3.95746,-0.03549 -7.61775,1.14174 -11.47585,1.70654c2.1348,1.53845 4.3805,2.76841 7.17482,3.39316l3.0916,1.02859c0,0 1.0052,0.33507 1.48865,1.22333c0.73111,0.43627 1.22078,1.23514 1.22078,2.14838z" fill="#ff0000" stroke="none" stroke-width="0.5" stroke-linecap="butt"/><path d="M253.67602,330.82103v-98h36v98z" fill="#ff0000" stroke="#ff0000" stroke-width="0" stroke-linecap="butt"/><path d="M321.67602,212.82103v-65h18v65z" fill="#ff0000" stroke="none" stroke-width="0" stroke-linecap="butt"/><path d="M140.67602,212.82103v-56h75v56z" fill="#ff0000" stroke="none" stroke-width="0" stroke-linecap="butt"/><path d="M163.67602,207.82103v40" fill="none" stroke="#ff0000" stroke-width="2" stroke-linecap="round"/><path d="M207.67602,249.82103h48" fill="none" stroke="#ff0000" stroke-width="2" stroke-linecap="round"/><path d="M194.67602,229.82103v-9" fill="none" stroke="#ff0000" stroke-width="2" stroke-linecap="round"/><path d="M201.67602,262.82103h-22l3,6h-19v-6" fill="none" stroke="#ff0000" stroke-width="2" stroke-linecap="round"/><path d="M218.67602,274.82103l-9,-5" fill="none" stroke="#ff0000" stroke-width="2" stroke-linecap="round"/><path d="M232.67602,272.82103l-12,-5" fill="none" stroke="#ff0000" stroke-width="2" stroke-linecap="round"/><path d="M204.67602,288.82103l18,-2" fill="none" stroke="#ff0000" stroke-width="2" stroke-linecap="round"/><path d="M187.67602,286.82103l-10,4" fill="none" stroke="#ff0000" stroke-width="2" stroke-linecap="round"/><path d="M211.67602,288.82103l3,30" fill="none" stroke="#ff0000" stroke-width="2" stroke-linecap="round"/><path d="M147.67602,308.82103l-10,-46" fill="none" stroke="#ff0000" stroke-width="2" stroke-linecap="round"/><path d="M159.67602,252.82103l14,-8l17,20" fill="none" stroke="#ff0000" stroke-width="2" stroke-linecap="round"/><path d="M143.67602,210.82103l-35,36l-7,18l3,18l-10,6l-12,-6" fill="none" stroke="#ff0000" stroke-width="2" stroke-linecap="round"/><path d="M91.67602,346.82103l10,-26l11,-11l12,10" fill="none" stroke="#ff0000" stroke-width="2" stroke-linecap="round"/><path d="M59.67602,304.82103l13,47" fill="none" stroke="#ff0000" stroke-width="2" stroke-linecap="round"/><path d="M19.14883,212.34133l50.52719,27.4797l4,9l-38,58l16,41" fill="none" stroke="#ff0000" stroke-width="2" stroke-linecap="round"/><path d="M41.67602,158.82103l-14,-1" fill="none" stroke="#ff0000" stroke-width="2" stroke-linecap="round"/><path d="M48.67602,127.82103l29,2" fill="none" stroke="#ff0000" stroke-width="2" stroke-linecap="round"/><path d="M20.67602,108.82103h23" fill="none" stroke="#ff0000" stroke-width="2" stroke-linecap="round"/><path d="M73.67602,75.82103l-18,-3" fill="none" stroke="#ff0000" stroke-width="2" stroke-linecap="round"/><path d="M27.67602,59.82103l16,28" fill="none" stroke="#ff0000" stroke-width="2" stroke-linecap="round"/><path d="M24.67602,37.82103l27,4" fill="none" stroke="#ff0000" stroke-width="2" stroke-linecap="round"/><path d="M-26.35117,461.67607v-512h47v512z" fill="#00fffb" stroke="none" stroke-width="0" stroke-linecap="butt"/><path d="M451.64883,513.67607v-535h184v535z" fill="#00fffb" stroke="none" stroke-width="0" stroke-linecap="butt"/></g></g></svg>