<svg version="1.1" xmlns="http://www.w3.org/2000/svg" xmlns:xlink="http://www.w3.org/1999/xlink" width="23.28571" height="24.9235" viewBox="0,0,23.28571,24.9235"><g transform="translate(-228.35714,-166.71936)"><g data-paper-data="{&quot;isPaintingLayer&quot;:true}" fill-rule="nonzero" stroke-linejoin="miter" stroke-miterlimit="10" stroke-dasharray="" stroke-dashoffset="0" style="mix-blend-mode: normal"><path d="M228.60715,191.39286v-22.78571h22.78571v22.78571z" fill="#ffffff" stroke="#ff0000" stroke-width="0.5" stroke-linecap="butt"/><path d="M228.60718,191.39286v-22.78571h22.78571v22.78571z" fill="#ffffff" stroke="none" stroke-width="0" stroke-linecap="butt"/><path d="M243.94247,177.04688l-11.03571,11.03571v-4.23166l3.27754,-3.27754l4.15254,4.15254l-3.375,3.375h-4.25" fill="none" stroke="#000000" stroke-width="0.5" stroke-linecap="round"/><path d="M247.40676,174.0558l-2.17857,3.82143l-2.10714,-2.10714z" fill="#4f4f4f" stroke="#4f4f4f" stroke-width="0.5" stroke-linecap="round"/><path d="M236.10593,180.80992c0.67666,0 1.22775,0.53766 1.24935,1.20908c0.32073,0.1854 0.59644,0.43999 0.80674,0.74337c0.0632,-0.00985 0.12796,-0.01495 0.19392,-0.01495c0.62718,0 1.14648,0.4619 1.23627,1.06409c0.41527,0.20323 0.70123,0.62992 0.70123,1.12341c0,0.68255 -0.54706,1.23733 -1.22663,1.24979c-0.8659,1.11049 -2.26821,2.42825 -2.84698,1.9104c-0.10462,-0.02223 -0.2044,-0.05756 -0.29755,-0.10417c-0.343,0.16021 -0.68829,0.23541 -1.01476,0.22225c-0.22447,0.21479 -0.52887,0.34674 -0.86408,0.34674c-0.69036,0 -1.25,-0.55964 -1.25,-1.25c0,-0.32774 0.12614,-0.62602 0.3325,-0.84895c0.00413,-0.02283 0.00888,-0.04543 0.01423,-0.06781c-0.06161,-0.29743 -0.09535,-0.6324 -0.09612,-1.00573c-0.19485,-0.22044 -0.31312,-0.51017 -0.31312,-0.82752c0,-0.55486 0.36153,-1.02528 0.86187,-1.18857c0.14926,-0.31705 0.36317,-0.59765 0.62476,-0.8248c0.1817,-0.20926 0.39762,-0.388 0.63903,-0.52756c0.02159,-0.67141 0.57268,-1.20908 1.24934,-1.20908z" fill="#000000" stroke="none" stroke-width="0.5" stroke-linecap="butt"/><path d="M233.91843,175.24742l9.125,3l1.8125,8l-8.375,-8.375z" fill="none" stroke="#ffad00" stroke-width="0.5" stroke-linecap="round"/><text transform="translate(229.50074,177.3683) scale(0.24926,0.24926)" font-size="40" xml:space="preserve" fill="#000000" fill-rule="nonzero" stroke="none" stroke-width="1" stroke-linecap="butt" stroke-linejoin="miter" stroke-miterlimit="10" stroke-dasharray="" stroke-dashoffset="0" font-family="Sans Serif" font-weight="normal" text-anchor="start" style="mix-blend-mode: normal"><tspan x="0" dy="0">3</tspan></text></g></g></svg>